<svg width="133" height="133" viewBox="0 0 133 133" fill="none" xmlns="http://www.w3.org/2000/svg">
<path d="M66.5 130.8C55.7 130.8 46.58 129.54 39.14 127.02C31.7 124.5 25.7 121.32 21.14 117.48C16.7 113.52 13.4 109.44 11.24 105.24C9.2 100.92 8.12 96.96 8 93.36C8 92.28 8.36 91.38 9.08 90.66C9.92 89.82 10.88 89.4 11.96 89.4H48.14C49.82 89.4 51.02 89.7 51.74 90.3C52.58 90.78 53.42 91.44 54.26 92.28C54.98 92.88 55.82 93.48 56.78 94.08C57.74 94.68 59 95.16 60.56 95.52C62.12 95.76 64.16 95.88 66.68 95.88C70.88 95.88 73.88 94.98 75.68 93.18C77.6 91.26 78.56 88.98 78.56 86.34C78.56 83.58 77.54 81.6 75.5 80.4C73.58 79.08 70.64 78.42 66.68 78.42H44.18C42.86 78.42 41.72 77.94 40.76 76.98C39.8 76.02 39.32 74.88 39.32 73.56V58.98C39.32 57.18 39.68 55.68 40.4 54.48C41.24 53.16 42.08 52.26 42.92 51.78L67.94 38.1H20.6C19.28 38.1 18.14 37.62 17.18 36.66C16.22 35.7 15.74 34.56 15.74 33.24V7.86C15.74 6.54 16.22 5.4 17.18 4.44C18.14 3.48 19.28 3 20.6 3H112.76C114.08 3 115.22 3.48 116.18 4.44C117.14 5.4 117.62 6.54 117.62 7.86V30.72C117.62 32.4 117.26 33.9 116.54 35.22C115.82 36.42 114.98 37.32 114.02 37.92L92.96 51.96V52.5C98.96 53.94 104.42 56.1 109.34 58.98C114.26 61.86 118.16 65.82 121.04 70.86C123.92 75.78 125.36 82.02 125.36 89.58C125.36 97.86 122.78 105.12 117.62 111.36C112.58 117.48 105.62 122.28 96.74 125.76C87.98 129.12 77.9 130.8 66.5 130.8Z" fill="#959595"/>
</svg>
