<svg width="133" height="133" viewBox="0 0 133 133" fill="none" xmlns="http://www.w3.org/2000/svg">
<path d="M59.3429 129C58.0229 129 56.8829 128.52 55.9229 127.56C54.9629 126.6 54.4829 125.46 54.4829 124.14V51.42L34.3229 66.9C33.1229 67.74 31.9229 68.04 30.7229 67.8C29.5229 67.44 28.4429 66.66 27.4829 65.46L11.6429 44.94C11.0429 43.74 10.8629 42.48 11.1029 41.16C11.3429 39.72 12.0629 38.64 13.2629 37.92L56.6429 4.26001C57.2429 3.78 57.8429 3.48 58.4429 3.36001C59.0429 3.12 59.7629 3 60.6029 3H94.6229C95.9429 3 97.0829 3.48 98.0429 4.44C99.0029 5.4 99.4829 6.54 99.4829 7.86V124.14C99.4829 125.46 99.0029 126.6 98.0429 127.56C97.0829 128.52 95.9429 129 94.6229 129H59.3429Z" fill="#959595"/>
</svg>
