<svg width="133" height="133" viewBox="0 0 133 133" fill="none" xmlns="http://www.w3.org/2000/svg">
<path d="M14.86 130.52C13.54 130.52 12.4 130.04 11.44 129.08C10.48 128.12 10 126.98 10 125.66V106.94C10 106.22 10.18 104.84 10.54 102.8C10.9 100.64 12.22 98.78 14.5 97.22L16.48 95.78C29.08 86.66 39.58 78.98 47.98 72.74C56.5 66.5 62.86 61.16 67.06 56.72C71.38 52.16 73.54 48.14 73.54 44.66C73.54 42.98 73.24 41.36 72.64 39.8C72.04 38.24 70.18 37.46 67.06 37.46C64.66 37.46 62.8 38.06 61.48 39.26C60.16 40.34 59.2 41.6 58.6 43.04C58 44.48 57.52 45.68 57.16 46.64C56.56 48.32 55.6 49.46 54.28 50.06C53.08 50.54 51.64 50.78 49.96 50.78H16.12C15.04 50.78 14.08 50.42 13.24 49.7C12.52 48.86 12.16 47.9 12.16 46.82C12.28 39.98 13.72 33.86 16.48 28.46C19.36 22.94 23.26 18.2 28.18 14.24C33.1 10.28 38.86 7.28 45.46 5.24C52.06 3.08 59.2 2 66.88 2C77.8 2 87.28 3.62 95.32 6.86C103.36 9.98 109.6 14.54 114.04 20.54C118.48 26.54 120.7 33.8 120.7 42.32C120.7 48.92 119.08 55.04 115.84 60.68C112.6 66.32 108.04 71.72 102.16 76.88C96.4 81.92 89.62 87.14 81.82 92.54L80.56 93.44H118.54C119.86 93.44 121 93.92 121.96 94.88C122.92 95.84 123.4 96.98 123.4 98.3V125.66C123.4 126.98 122.92 128.12 121.96 129.08C121 130.04 119.86 130.52 118.54 130.52H14.86Z" fill="#959595"/>
</svg>
