<svg width="133" height="133" viewBox="0 0 133 133" fill="none" xmlns="http://www.w3.org/2000/svg">
<path d="M68.54 129C67.22 129 66.08 128.52 65.12 127.56C64.16 126.6 63.68 125.46 63.68 124.14V108.84H9.86C8.54 108.84 7.4 108.36 6.44 107.4C5.48 106.44 5 105.3 5 103.98V78.24C5 76.68 5.24 75.48 5.72 74.64C6.2 73.8 6.62 73.14 6.98 72.66L57.92 6.06C59.6 4.02 61.82 3 64.58 3H102.02C103.34 3 104.48 3.48 105.44 4.44C106.4 5.4 106.88 6.54 106.88 7.86V72.3H122.54C124.1 72.3 125.3 72.78 126.14 73.74C127.1 74.7 127.58 75.84 127.58 77.16V103.98C127.58 105.3 127.1 106.44 126.14 107.4C125.18 108.36 124.04 108.84 122.72 108.84H106.88V124.14C106.88 125.46 106.4 126.6 105.44 127.56C104.48 128.52 103.34 129 102.02 129H68.54ZM46.04 74.28H64.94V48.36L46.04 74.28Z" fill="#959595"/>
</svg>
